<svg xmlns="http://www.w3.org/2000/svg" viewBox="0 0 512 512">
  <defs>
    <linearGradient id="wvD-fade" x1="0%" y1="0%" x2="100%" y2="0%">
      <stop offset="0%" stop-color="#22a8d8" stop-opacity="0.15"></stop>
      <stop offset="50%" stop-color="#a8e8ff" stop-opacity="1"></stop>
      <stop offset="100%" stop-color="#22a8d8" stop-opacity="0.15"></stop>
    </linearGradient>
    <radialGradient id="wvD-bg" cx="50%" cy="50%" r="65%">
      <stop offset="0%" stop-color="#0e1828"></stop>
      <stop offset="100%" stop-color="#060911"></stop>
    </radialGradient>
  </defs>

  <rect width="512" height="512" rx="112" fill="url(#wvD-bg)"></rect>

  
  <g fill="#1f3a4a" opacity="0.35">
    
    <circle cx="96" cy="96" r="1.5"></circle><circle cx="128" cy="96" r="1.5"></circle><circle cx="160" cy="96" r="1.5"></circle><circle cx="192" cy="96" r="1.5"></circle><circle cx="224" cy="96" r="1.5"></circle><circle cx="256" cy="96" r="1.5"></circle><circle cx="288" cy="96" r="1.5"></circle><circle cx="320" cy="96" r="1.5"></circle><circle cx="352" cy="96" r="1.5"></circle><circle cx="384" cy="96" r="1.5"></circle><circle cx="416" cy="96" r="1.5"></circle>
    <circle cx="96" cy="128" r="1.5"></circle><circle cx="128" cy="128" r="1.5"></circle><circle cx="160" cy="128" r="1.5"></circle><circle cx="192" cy="128" r="1.5"></circle><circle cx="224" cy="128" r="1.5"></circle><circle cx="256" cy="128" r="1.5"></circle><circle cx="288" cy="128" r="1.5"></circle><circle cx="320" cy="128" r="1.5"></circle><circle cx="352" cy="128" r="1.5"></circle><circle cx="384" cy="128" r="1.5"></circle><circle cx="416" cy="128" r="1.5"></circle>
    
    <circle cx="96" cy="384" r="1.5"></circle><circle cx="128" cy="384" r="1.5"></circle><circle cx="160" cy="384" r="1.5"></circle><circle cx="192" cy="384" r="1.5"></circle><circle cx="224" cy="384" r="1.5"></circle><circle cx="256" cy="384" r="1.5"></circle><circle cx="288" cy="384" r="1.5"></circle><circle cx="320" cy="384" r="1.5"></circle><circle cx="352" cy="384" r="1.5"></circle><circle cx="384" cy="384" r="1.5"></circle><circle cx="416" cy="384" r="1.5"></circle>
    <circle cx="96" cy="416" r="1.5"></circle><circle cx="128" cy="416" r="1.5"></circle><circle cx="160" cy="416" r="1.5"></circle><circle cx="192" cy="416" r="1.5"></circle><circle cx="224" cy="416" r="1.5"></circle><circle cx="256" cy="416" r="1.5"></circle><circle cx="288" cy="416" r="1.5"></circle><circle cx="320" cy="416" r="1.5"></circle><circle cx="352" cy="416" r="1.5"></circle><circle cx="384" cy="416" r="1.5"></circle><circle cx="416" cy="416" r="1.5"></circle>
  </g>

  
  <g stroke="#22a8d8" stroke-width="1" opacity="0.12" stroke-dasharray="2 6">
    <line x1="60" y1="160" x2="452" y2="160"></line>
    <line x1="60" y1="256" x2="452" y2="256"></line>
    <line x1="60" y1="352" x2="452" y2="352"></line>
  </g>

  
  <g stroke="#7dd8ff" stroke-linecap="round" opacity="0.6">
    <line x1="60" y1="144" x2="70" y2="144" stroke-width="2"></line>
    <line x1="60" y1="200" x2="66" y2="200" stroke-width="1.5"></line>
    <line x1="60" y1="256" x2="74" y2="256" stroke-width="2.5"></line>
    <line x1="60" y1="312" x2="66" y2="312" stroke-width="1.5"></line>
    <line x1="60" y1="368" x2="70" y2="368" stroke-width="2"></line>
  </g>
  <g stroke="#7dd8ff" stroke-linecap="round" opacity="0.6">
    <line x1="452" y1="144" x2="442" y2="144" stroke-width="2"></line>
    <line x1="452" y1="200" x2="446" y2="200" stroke-width="1.5"></line>
    <line x1="452" y1="256" x2="438" y2="256" stroke-width="2.5"></line>
    <line x1="452" y1="312" x2="446" y2="312" stroke-width="1.5"></line>
    <line x1="452" y1="368" x2="442" y2="368" stroke-width="2"></line>
  </g>

  
  <g fill="url(#wvD-fade)">
    <circle cx="96" cy="256" r="6"></circle>
    <circle cx="128" cy="240" r="6"></circle><circle cx="128" cy="256" r="6"></circle><circle cx="128" cy="272" r="6"></circle>
    <circle cx="160" cy="224" r="6"></circle><circle cx="160" cy="240" r="6"></circle><circle cx="160" cy="256" r="6"></circle><circle cx="160" cy="272" r="6"></circle><circle cx="160" cy="288" r="6"></circle>
    <circle cx="192" cy="192" r="6"></circle><circle cx="192" cy="208" r="6"></circle><circle cx="192" cy="224" r="6"></circle><circle cx="192" cy="240" r="6"></circle><circle cx="192" cy="256" r="6"></circle><circle cx="192" cy="272" r="6"></circle><circle cx="192" cy="288" r="6"></circle><circle cx="192" cy="304" r="6"></circle><circle cx="192" cy="320" r="6"></circle>
    <circle cx="224" cy="208" r="6"></circle><circle cx="224" cy="224" r="6"></circle><circle cx="224" cy="240" r="6"></circle><circle cx="224" cy="256" r="6"></circle><circle cx="224" cy="272" r="6"></circle><circle cx="224" cy="288" r="6"></circle><circle cx="224" cy="304" r="6"></circle>
    <circle cx="256" cy="144" r="6"></circle><circle cx="256" cy="160" r="6"></circle><circle cx="256" cy="176" r="6"></circle><circle cx="256" cy="192" r="6"></circle><circle cx="256" cy="208" r="6"></circle><circle cx="256" cy="224" r="6"></circle><circle cx="256" cy="240" r="6"></circle><circle cx="256" cy="256" r="6"></circle><circle cx="256" cy="272" r="6"></circle><circle cx="256" cy="288" r="6"></circle><circle cx="256" cy="304" r="6"></circle><circle cx="256" cy="320" r="6"></circle><circle cx="256" cy="336" r="6"></circle><circle cx="256" cy="352" r="6"></circle><circle cx="256" cy="368" r="6"></circle>
    <circle cx="288" cy="192" r="6"></circle><circle cx="288" cy="208" r="6"></circle><circle cx="288" cy="224" r="6"></circle><circle cx="288" cy="240" r="6"></circle><circle cx="288" cy="256" r="6"></circle><circle cx="288" cy="272" r="6"></circle><circle cx="288" cy="288" r="6"></circle><circle cx="288" cy="304" r="6"></circle><circle cx="288" cy="320" r="6"></circle>
    <circle cx="320" cy="224" r="6"></circle><circle cx="320" cy="240" r="6"></circle><circle cx="320" cy="256" r="6"></circle><circle cx="320" cy="272" r="6"></circle><circle cx="320" cy="288" r="6"></circle>
    <circle cx="352" cy="240" r="6"></circle><circle cx="352" cy="256" r="6"></circle><circle cx="352" cy="272" r="6"></circle>
    <circle cx="384" cy="256" r="6"></circle>
  </g>

  
  <g>
    <line x1="256" y1="128" x2="256" y2="118" stroke="#7dd8ff" stroke-width="1.5" stroke-linecap="round" opacity="0.7"></line>
    <polygon points="256,110 252,118 260,118" fill="#7dd8ff" opacity="0.85"></polygon>
  </g>

  
  <g stroke="#7dd8ff" stroke-width="2" fill="none" stroke-linecap="round" opacity="0.7">
    <path d="M 72 96 L 72 72 L 96 72"></path>
    <path d="M 440 96 L 440 72 L 416 72"></path>
    <path d="M 72 416 L 72 440 L 96 440"></path>
    <path d="M 440 416 L 440 440 L 416 440"></path>
  </g>

  
  <g font-family="ui-monospace, &#39;SF Mono&#39;, Menlo, monospace" font-size="13" fill="#7dd8ff" letter-spacing="2">
    <text x="88" y="438" opacity="0.7">REC · 00:03</text>
    <text x="424" y="438" opacity="0.5" text-anchor="end">J.AI</text>
  </g>

  
  <g>
    <circle cx="420" cy="84" r="3.5" fill="#7dd8ff"></circle>
    <circle cx="420" cy="84" r="7" fill="none" stroke="#7dd8ff" stroke-width="1" opacity="0.5"></circle>
  </g>

  
  <g font-family="ui-monospace, &#39;SF Mono&#39;, Menlo, monospace" font-size="11" fill="#7dd8ff" letter-spacing="2" opacity="0.55">
    <text x="256" y="62" text-anchor="middle">FREQ · 440Hz</text>
  </g>
</svg>